<svg width="64" height="64" viewBox="0 0 64 64" fill="none" xmlns="http://www.w3.org/2000/svg">
<path d="M38.1937 39.6919V43.6921H47.5743C53.8548 43.6921 57.695 39.9719 57.695 34.8915C57.695 30.6513 55.2749 27.231 51.2946 25.6509C51.3146 16.6103 44.7941 10.0898 36.4136 10.0898C31.0932 10.0898 27.0929 12.83 24.5928 16.4503C19.8124 15.2702 14.1721 18.8904 13.972 24.5308C9.39173 25.3109 6.57153 29.1111 6.57153 33.9515C6.57153 39.3318 10.6718 43.6921 17.3323 43.6921H25.9929V39.6919H17.3323C12.972 39.6919 10.6118 37.0917 10.6118 33.8715C10.6118 30.1312 13.072 27.511 17.1523 27.511C17.4523 27.511 17.5723 27.351 17.5523 27.071C17.4323 21.1106 21.6926 19.1905 25.9929 20.4506C26.2529 20.5106 26.4129 20.4706 26.5329 20.2505C28.453 16.7503 31.4332 14.0701 36.3936 14.0701C42.674 14.0701 47.1543 19.0505 47.4543 24.8709C47.5143 25.9309 47.4343 27.111 47.3543 28.0711C47.3143 28.3511 47.4343 28.5111 47.6943 28.5511C51.3546 29.2512 53.6548 31.3713 53.6548 34.7115C53.6548 37.6317 51.6146 39.6919 47.4943 39.6919H38.1937ZM32.0933 53.6928C33.1334 53.6928 33.9734 52.8528 33.9734 51.8527V33.4314L33.7734 29.8712L35.0535 31.3513L37.8337 34.1515C38.1737 34.5115 38.6337 34.7115 39.0938 34.7115C40.0138 34.7115 40.7739 34.0315 40.7739 33.0914C40.7739 32.6114 40.5939 32.2314 40.2338 31.9113L33.5134 25.5909C33.0133 25.1309 32.5933 24.9509 32.0933 24.9509C31.6132 24.9509 31.1732 25.1309 30.6732 25.5909L23.9527 31.9113C23.5927 32.2314 23.4327 32.6114 23.4327 33.0914C23.4327 34.0315 24.1727 34.7115 25.0928 34.7115C25.5528 34.7115 26.0129 34.5115 26.3529 34.1515L29.1331 31.3513L30.4332 29.8712L30.2132 33.4314V51.8527C30.2132 52.8528 31.0732 53.6928 32.0933 53.6928Z" fill="#40C6FF" fill-opacity="0.28"/>
</svg>
