<svg width="146" height="94" viewBox="0 0 146 94" fill="none" xmlns="http://www.w3.org/2000/svg">
<rect x="0.5" y="0.5" width="137" height="83" rx="1.5" fill="#262E46" stroke="#898989"/>
<rect x="8.35" y="10.35" width="137.3" height="83.3" rx="1.65" fill="#262E46" stroke="white" stroke-width="0.7"/>
<path d="M16 31.5H42.1622" stroke="#A6A6A6" stroke-linecap="round"/>
<path d="M16 36.5H42.1622" stroke="#A6A6A6" stroke-linecap="round"/>
<path d="M16 42.5H42.1622" stroke="#A6A6A6" stroke-linecap="round"/>
<path d="M16 48.5H42.1622" stroke="#A6A6A6" stroke-linecap="round"/>
<path d="M16 54.5H42.1622" stroke="#A6A6A6" stroke-linecap="round"/>
<path d="M16 60.5H42.1622" stroke="#A6A6A6" stroke-linecap="round"/>
<path d="M16 65.5H42.1622" stroke="#A6A6A6" stroke-linecap="round"/>
<path d="M16 71.5H42.1622" stroke="#A6A6A6" stroke-linecap="round"/>
<path d="M16 77.5H42.1622" stroke="#A6A6A6" stroke-linecap="round"/>
<path d="M16 83.5H42.1622" stroke="#A6A6A6" stroke-linecap="round"/>
<path d="M48 31.5H74.1622" stroke="#A6A6A6" stroke-linecap="round"/>
<path d="M48 36.5H74.1622" stroke="#A6A6A6" stroke-linecap="round"/>
<path d="M48 42.5H74.1622" stroke="#A6A6A6" stroke-linecap="round"/>
<path d="M48 48.5H74.1622" stroke="#A6A6A6" stroke-linecap="round"/>
<path d="M48 54.5H74.1622" stroke="#A6A6A6" stroke-linecap="round"/>
<path d="M48 60.5H74.1622" stroke="#A6A6A6" stroke-linecap="round"/>
<path d="M48 65.5H74.1622" stroke="#A6A6A6" stroke-linecap="round"/>
<path d="M48 71.5H74.1622" stroke="#A6A6A6" stroke-linecap="round"/>
<path d="M48 77.5H74.1622" stroke="#A6A6A6" stroke-linecap="round"/>
<path d="M48 83.5H74.1622" stroke="#A6A6A6" stroke-linecap="round"/>
<rect x="77" y="26" width="32" height="63" fill="#47506E"/>
<path d="M80 31.5H106.162" stroke="#A6A6A6" stroke-linecap="round"/>
<path d="M80 36.5H106.162" stroke="#A6A6A6" stroke-linecap="round"/>
<path d="M80 42.5H106.162" stroke="#A6A6A6" stroke-linecap="round"/>
<path d="M80 48.5H106.162" stroke="#A6A6A6" stroke-linecap="round"/>
<path d="M80 54.5H106.162" stroke="#A6A6A6" stroke-linecap="round"/>
<path d="M80 60.5H106.162" stroke="#A6A6A6" stroke-linecap="round"/>
<path d="M80 65.5H106.162" stroke="#A6A6A6" stroke-linecap="round"/>
<path d="M80 71.5H106.162" stroke="#A6A6A6" stroke-linecap="round"/>
<path d="M80 77.5H106.162" stroke="#A6A6A6" stroke-linecap="round"/>
<path d="M80 83.5H106.162" stroke="#A6A6A6" stroke-linecap="round"/>
<path d="M112 31.5H138.162" stroke="#A6A6A6" stroke-linecap="round"/>
<path d="M112 36.5H138.162" stroke="#A6A6A6" stroke-linecap="round"/>
<path d="M112 42.5H138.162" stroke="#A6A6A6" stroke-linecap="round"/>
<path d="M112 48.5H138.162" stroke="#A6A6A6" stroke-linecap="round"/>
<path d="M112 54.5H138.162" stroke="#A6A6A6" stroke-linecap="round"/>
<path d="M112 60.5H138.162" stroke="#A6A6A6" stroke-linecap="round"/>
<path d="M112 65.5H138.162" stroke="#A6A6A6" stroke-linecap="round"/>
<path d="M112 71.5H138.162" stroke="#A6A6A6" stroke-linecap="round"/>
<path d="M112 77.5H138.162" stroke="#A6A6A6" stroke-linecap="round"/>
<path d="M112 83.5H138.162" stroke="#A6A6A6" stroke-linecap="round"/>
<rect x="15" y="17" width="29" height="7" rx="2" fill="#111827"/>
<rect x="47" y="17" width="29" height="7" rx="2" fill="#111827"/>
<rect x="79" y="17" width="29" height="7" rx="2" fill="#40C6FF"/>
<rect x="111" y="17" width="29" height="7" rx="2" fill="#111827"/>
<g clip-path="url(#clip0_202_20062)" filter="url(#filter0_d_202_20062)">
<g filter="url(#filter1_d_202_20062)">
<path d="M110.133 29.231C110.31 29.0252 110.343 28.8035 110.315 28.3978L110.06 24.9524C110.057 24.9189 110.058 24.8885 110.074 24.8705C110.086 24.856 110.116 24.8503 110.15 24.8477L113.593 24.5663C113.998 24.5314 114.212 24.4642 114.388 24.2583C114.623 23.9839 114.571 23.6205 114.282 23.3733C114.13 23.2436 113.9 23.1469 113.664 23.0574L105.612 20.0705C105.15 19.9008 104.808 19.9274 104.592 20.1802C104.376 20.433 104.396 20.7753 104.638 21.2081L108.835 28.7017C108.96 28.9212 109.091 29.1335 109.243 29.2632C109.532 29.5104 109.899 29.5054 110.133 29.231ZM109.403 27.9429C109.386 27.9476 109.372 27.9352 109.356 27.9094L105.558 21.0758C105.539 21.0402 105.537 21.0201 105.553 21.0021C105.565 20.9876 105.585 20.9861 105.623 21L112.962 23.6951C112.99 23.7065 113.001 23.7224 113.002 23.7358C113 23.7528 112.984 23.7642 112.961 23.7627L109.528 24.0096C109.374 24.0216 109.283 24.0691 109.222 24.1413C109.16 24.2135 109.124 24.3141 109.136 24.4682L109.426 27.8939C109.428 27.9207 109.416 27.9352 109.403 27.9429Z" fill="white"/>
</g>
</g>
<defs>
<filter id="filter0_d_202_20062" x="86" y="1" width="45.3479" height="45.3477" filterUnits="userSpaceOnUse" color-interpolation-filters="sRGB">
<feFlood flood-opacity="0" result="BackgroundImageFix"/>
<feColorMatrix in="SourceAlpha" type="matrix" values="0 0 0 0 0 0 0 0 0 0 0 0 0 0 0 0 0 0 127 0" result="hardAlpha"/>
<feOffset/>
<feGaussianBlur stdDeviation="6"/>
<feComposite in2="hardAlpha" operator="out"/>
<feColorMatrix type="matrix" values="0 0 0 0 0 0 0 0 0 0 0 0 0 0 0 0 0 0 0.25 0"/>
<feBlend mode="normal" in2="BackgroundImageFix" result="effect1_dropShadow_202_20062"/>
<feBlend mode="normal" in="SourceGraphic" in2="effect1_dropShadow_202_20062" result="shape"/>
</filter>
<filter id="filter1_d_202_20062" x="100.442" y="19.9629" width="18.0937" height="17.4805" filterUnits="userSpaceOnUse" color-interpolation-filters="sRGB">
<feFlood flood-opacity="0" result="BackgroundImageFix"/>
<feColorMatrix in="SourceAlpha" type="matrix" values="0 0 0 0 0 0 0 0 0 0 0 0 0 0 0 0 0 0 127 0" result="hardAlpha"/>
<feOffset dy="4"/>
<feGaussianBlur stdDeviation="2"/>
<feComposite in2="hardAlpha" operator="out"/>
<feColorMatrix type="matrix" values="0 0 0 0 0 0 0 0 0 0 0 0 0 0 0 0 0 0 0.88 0"/>
<feBlend mode="normal" in2="BackgroundImageFix" result="effect1_dropShadow_202_20062"/>
<feBlend mode="normal" in="SourceGraphic" in2="effect1_dropShadow_202_20062" result="shape"/>
</filter>
<clipPath id="clip0_202_20062">
<rect width="15.1408" height="15.1408" fill="white" transform="translate(98 24.5039) rotate(-49.4496)"/>
</clipPath>
</defs>
</svg>
