<svg width="138" height="91" viewBox="0 0 138 91" fill="none" xmlns="http://www.w3.org/2000/svg">
<rect width="138" height="91" rx="2" fill="#262E46"/>
<path d="M15.5 45.5L18 48.5L23.5 42" stroke="#DEFE47" stroke-width="1.5" stroke-linecap="round"/>
<circle cx="19.5" cy="45.5" r="8.75" stroke="#DEFE47" stroke-width="1.5"/>
<circle cx="19.5" cy="73.5" r="8.75" stroke="#AE8FFF" stroke-width="1.5"/>
<path d="M16.6721 74.2536L16.6996 74.1986C16.8142 73.9763 16.9952 73.7953 17.2175 73.6807L17.2725 73.6532C17.4902 73.5432 17.4902 73.2315 17.2725 73.1192L17.2175 73.0917C16.9952 72.9772 16.8142 72.7961 16.6996 72.5738L16.6721 72.5188C16.5621 72.3011 16.2504 72.3011 16.1381 72.5188L16.1106 72.5738C15.996 72.7961 15.815 72.9772 15.5927 73.0917L15.5377 73.1192C15.32 73.2292 15.32 73.5409 15.5377 73.6532L15.5927 73.6807C15.815 73.7953 15.996 73.9763 16.1106 74.1986L16.1381 74.2536C16.2481 74.4713 16.5598 74.4713 16.6721 74.2536Z" fill="#AE8FFF"/>
<path d="M23.2331 76.0984L23.1781 76.0709C22.9558 75.9563 22.7748 75.7753 22.6602 75.553L22.6327 75.498C22.5227 75.2803 22.211 75.2803 22.0987 75.498L22.0712 75.553C21.9567 75.7753 21.7756 75.9563 21.5533 76.0709L21.4983 76.0984C21.2806 76.2084 21.2806 76.5201 21.4983 76.6324L21.5533 76.6599C21.7756 76.7745 21.9567 76.9555 22.0712 77.1778L22.0987 77.2328C22.2087 77.4505 22.5204 77.4505 22.6327 77.2328L22.6602 77.1778C22.7748 76.9555 22.9558 76.7745 23.1781 76.6599L23.2331 76.6324C23.4508 76.5224 23.4508 76.2107 23.2331 76.0984Z" fill="#AE8FFF"/>
<path d="M16.8462 71.3867L16.9196 71.4234C17.1487 71.5403 17.3321 71.7236 17.449 71.9528L17.4856 72.0261C17.6117 72.2736 17.8637 72.4272 18.141 72.4272C18.4183 72.4272 18.6704 72.2736 18.7987 72.0261L18.8354 71.9528C18.9523 71.7236 19.1356 71.5403 19.3648 71.4234L19.4381 71.3867C19.6856 71.2607 19.8392 71.0086 19.8392 70.7313C19.8392 70.454 19.6856 70.202 19.4381 70.0736L19.3648 70.037C19.1356 69.9201 18.9523 69.7367 18.8354 69.5076L18.7987 69.4342C18.6727 69.1867 18.4206 69.0332 18.141 69.0332C17.8615 69.0332 17.6117 69.1867 17.4833 69.4342L17.4467 69.5076C17.3298 69.7367 17.1465 69.9201 16.9173 70.037L16.844 70.0736C16.5965 70.1997 16.4429 70.4517 16.4429 70.7313C16.4429 71.0109 16.5965 71.2607 16.844 71.389L16.8462 71.3867ZM17.1579 70.6855L17.2312 70.6488C17.591 70.4655 17.8775 70.179 18.0608 69.8192L18.0975 69.7459C18.0975 69.7459 18.1112 69.7184 18.141 69.7184C18.1708 69.7184 18.1823 69.7367 18.1846 69.7459L18.2212 69.8192C18.4046 70.179 18.691 70.4655 19.0508 70.6488L19.1242 70.6855C19.1242 70.6855 19.1517 70.6992 19.1517 70.729C19.1517 70.7588 19.131 70.7703 19.1242 70.7726L19.0508 70.8092C18.691 70.9926 18.4046 71.279 18.2212 71.6388L18.1846 71.7122C18.1846 71.7122 18.1708 71.7397 18.141 71.7397C18.1112 71.7397 18.0998 71.719 18.0975 71.7122L18.0608 71.6388C17.8775 71.279 17.591 70.9926 17.2312 70.8092L17.1579 70.7726C17.1579 70.7726 17.1304 70.7588 17.1304 70.729C17.1304 70.6992 17.151 70.6878 17.1579 70.6855Z" fill="#AE8FFF"/>
<path d="M23.6915 70.8986L23.2469 70.454C23.0681 70.2753 22.8298 70.1767 22.5777 70.1767C22.3256 70.1767 22.0873 70.2753 21.9085 70.454L17.1487 75.2138C17.1487 75.2138 17.1442 75.2207 17.1419 75.2253C17.1144 75.2551 17.0915 75.2872 17.0754 75.3238V75.3284L16.4131 76.9074C16.31 77.1526 16.3673 77.4322 16.5575 77.6201C16.6812 77.7415 16.844 77.8057 17.0112 77.8057C17.0983 77.8057 17.1877 77.7874 17.2725 77.7507L18.8194 77.0724L18.8285 77.0678C18.8652 77.0517 18.895 77.0288 18.9225 77.0036C18.9248 77.0013 18.9294 76.999 18.934 76.9967L23.6937 72.237C23.8725 72.0582 23.971 71.8199 23.971 71.5678C23.971 71.3157 23.8725 71.0774 23.6937 70.8986H23.6915ZM18.6887 76.268L17.8775 75.4567L21.4433 71.8909L22.2546 72.7022L18.6887 76.268ZM23.2056 71.7511L22.7404 72.2163L21.9292 71.4051L22.3944 70.9399C22.4906 70.8413 22.6625 70.8413 22.761 70.9399L23.2056 71.3845C23.2537 71.4326 23.2812 71.499 23.2812 71.5678C23.2812 71.6365 23.2537 71.7007 23.2056 71.7511Z" fill="#AE8FFF"/>
<path d="M19.4909 27.5554C24.6523 27.5554 28.9124 23.2952 28.9124 18.1429C28.9124 12.9907 24.6432 8.73047 19.4818 8.73047C14.3295 8.73047 10.0784 12.9907 10.0784 18.1429C10.0784 23.2952 14.3386 27.5554 19.4909 27.5554ZM19.4909 25.6802C15.3126 25.6802 11.9718 22.3212 11.9718 18.1429C11.9718 13.9647 15.3126 10.6148 19.4818 10.6148C23.66 10.6148 27.019 13.9647 27.0281 18.1429C27.0372 22.3212 23.6691 25.6802 19.4909 25.6802ZM19.2906 19.9544C19.7913 19.9544 20.1099 19.6631 20.1372 19.2899C20.1372 19.2626 20.1372 19.2171 20.1463 19.1807C20.1736 18.7164 20.4922 18.4069 21.0839 18.0155C21.9851 17.4329 22.5586 16.9049 22.5586 15.8581C22.5586 14.347 21.1931 13.4731 19.5728 13.4731C18.0162 13.4731 16.9512 14.1831 16.669 15.0388C16.6144 15.1936 16.5779 15.3483 16.5779 15.5122C16.5779 15.9582 16.9239 16.2313 17.3426 16.2313C17.8797 16.2313 17.998 15.9582 18.2802 15.6487C18.5715 15.1936 18.9538 14.9296 19.4909 14.9296C20.21 14.9296 20.6834 15.3392 20.6834 15.9491C20.6834 16.5044 20.3011 16.8048 19.5273 17.3328C18.881 17.7879 18.4076 18.2522 18.4076 19.0714V19.1716C18.4076 19.6904 18.7262 19.9544 19.2906 19.9544ZM19.2724 22.749C19.855 22.749 20.3375 22.3303 20.3375 21.7477C20.3375 21.1742 19.8641 20.7464 19.2724 20.7464C18.6807 20.7464 18.1983 21.1742 18.1983 21.7477C18.1983 22.3212 18.6807 22.749 19.2724 22.749Z" fill="#40C6FF"/>
<line x1="38" y1="11.5" x2="128" y2="11.5" stroke="white"/>
<line x1="38" y1="18.5" x2="128" y2="18.5" stroke="white"/>
<line x1="38" y1="25.5" x2="128" y2="25.5" stroke="white"/>
<line x1="38" y1="38.5" x2="128" y2="38.5" stroke="white"/>
<line x1="38" y1="45.5" x2="128" y2="45.5" stroke="white"/>
<line x1="38" y1="52.5" x2="128" y2="52.5" stroke="white"/>
<line x1="38" y1="66.5" x2="128" y2="66.5" stroke="#AE8FFF"/>
<line x1="38" y1="73.5" x2="128" y2="73.5" stroke="#AE8FFF"/>
<line x1="38" y1="80.5" x2="128" y2="80.5" stroke="#AE8FFF"/>
</svg>
